<svg version="1.1" id="Layer_1" xmlns="http://www.w3.org/2000/svg" xmlns:xlink="http://www.w3.org/1999/xlink" x="0px" y="0px"
	 width="100%" viewBox="0 0 2000 2000" enable-background="new 0 0 2000 2000" xml:space="preserve">
<path fill="#1C98F7" opacity="1.000000" stroke="none" 
	d="
M1064.000000,2001.000000 
	C1022.312439,2001.000000 980.624878,2001.000000 938.731079,2000.613770 
	C932.745361,1999.485352 926.977356,1998.634277 921.183960,1998.024902 
	C910.908997,1996.944336 900.590576,1996.235718 890.340820,1994.964600 
	C873.002991,1992.814575 855.630005,1990.791382 838.408447,1987.900879 
	C817.096680,1984.323730 795.746033,1980.670654 774.730225,1975.704712 
	C735.451965,1966.423218 696.565979,1955.576172 658.875916,1940.964478 
	C634.870667,1931.658325 610.842834,1922.319946 587.330139,1911.860840 
	C566.672302,1902.671753 546.376282,1892.526001 526.539368,1881.671753 
	C502.770569,1868.666016 479.050049,1855.386230 456.425781,1840.524658 
	C431.697906,1824.281006 407.742432,1806.741699 384.385956,1788.564819 
	C362.295685,1771.373535 341.058258,1753.028442 320.138916,1734.411865 
	C306.823120,1722.561768 294.510101,1709.539429 282.220154,1696.593994 
	C267.689209,1681.287964 253.465393,1665.677124 239.492691,1649.858887 
	C229.419876,1638.455566 219.377777,1626.936279 210.381866,1614.689941 
	C194.108673,1592.536987 177.849045,1570.301514 163.023621,1547.177246 
	C146.638153,1521.619751 131.234207,1495.374878 116.605377,1468.768066 
	C105.730606,1448.989136 96.461472,1428.298340 87.060844,1407.746826 
	C79.580544,1391.393677 72.314713,1374.880493 66.154671,1358.000122 
	C57.513275,1334.320312 49.378723,1310.415527 42.157616,1286.269043 
	C35.346119,1263.492432 29.805479,1240.325806 24.087433,1217.236206 
	C21.280834,1205.903076 19.079020,1194.401245 17.073536,1182.893799 
	C14.750880,1169.566284 12.835206,1156.164307 10.943851,1142.766235 
	C8.844679,1127.895996 6.709322,1113.022217 5.091050,1098.095581 
	C3.957588,1087.640869 3.709818,1077.091553 2.917749,1066.595703 
	C2.849211,1065.687378 1.665648,1064.863159 1.000015,1064.000000 
	C1.000000,1021.979126 1.000000,979.958191 1.410752,937.651001 
	C2.206644,936.682068 2.876612,936.022339 2.933785,935.313293 
	C3.672982,926.146179 4.244916,916.965271 5.019828,907.801453 
	C5.932338,897.010376 6.635602,886.182983 8.086125,875.460144 
	C10.444344,858.027405 12.708939,840.541382 16.155397,823.306274 
	C20.853764,799.810486 26.482237,776.495667 31.970837,753.164185 
	C39.510826,721.112366 49.014725,689.623047 61.048653,658.977905 
	C71.997467,631.096069 82.977478,603.186096 95.266052,575.883728 
	C104.799690,554.702209 115.561028,533.966858 127.237823,513.882690 
	C142.735596,487.226532 159.272583,461.147919 176.101257,435.301788 
	C186.909241,418.702454 198.598236,402.622131 210.716354,386.946198 
	C222.227707,372.055176 234.573776,357.784912 246.987625,343.622803 
	C260.248322,328.494598 273.889648,313.692566 287.627228,298.993408 
	C293.258911,292.967560 299.531830,287.534241 305.594055,281.918854 
	C318.314392,270.136047 330.818542,258.100098 343.911133,246.744125 
	C359.104797,233.565765 374.324463,220.318512 390.453949,208.341690 
	C413.128052,191.505188 436.210266,175.128891 459.935333,159.822723 
	C482.973175,144.959946 506.509583,130.675064 530.797791,117.995972 
	C559.450256,103.038628 588.771301,89.204613 618.489075,76.487862 
	C650.797546,62.662441 683.920593,50.726063 717.937012,41.601517 
	C742.964111,34.888271 767.873962,27.482231 793.229248,22.314001 
	C823.525513,16.138659 854.175659,11.562783 884.800781,7.192709 
	C901.368713,4.828533 918.206482,4.368040 934.911743,2.924356 
	C935.988586,2.831290 936.972717,1.666337 938.000000,1.000004 
	C979.687561,1.000000 1021.375183,1.000000 1063.263184,1.384286 
	C1064.649292,2.178681 1065.811646,2.848922 1067.024292,2.957009 
	C1075.375122,3.701392 1083.752808,4.169092 1092.090942,5.027925 
	C1107.071289,6.570941 1122.051270,8.157165 1136.991333,10.041571 
	C1151.069580,11.817248 1165.202881,13.448128 1179.121338,16.131580 
	C1200.942505,20.338699 1222.784058,24.680267 1244.283691,30.251425 
	C1267.925415,36.377666 1291.361450,43.438278 1314.568115,51.062374 
	C1335.285278,57.868587 1355.696777,65.669098 1376.001709,73.645943 
	C1392.544678,80.144920 1408.969849,87.048302 1425.024780,94.663193 
	C1458.983276,110.769859 1492.438477,127.932068 1524.171997,148.135330 
	C1546.889160,162.598312 1569.624512,177.162292 1591.264526,193.152649 
	C1614.377197,210.231247 1636.494263,228.703049 1658.509033,247.205673 
	C1673.788574,260.047455 1688.285889,273.834839 1702.876831,287.473602 
	C1709.024414,293.220032 1714.584351,299.605927 1720.286743,305.815704 
	C1734.342529,321.122131 1748.522827,336.321167 1762.273193,351.898743 
	C1772.347046,363.311310 1782.475464,374.777496 1791.417969,387.065155 
	C1808.897339,411.083221 1826.194214,435.283020 1842.379395,460.179352 
	C1856.775879,482.324066 1870.387817,505.073364 1882.842163,528.360046 
	C1895.788696,552.566711 1907.813599,577.359985 1918.623291,602.590088 
	C1930.152954,629.500610 1940.389526,657.011597 1950.090454,684.646729 
	C1960.820312,715.213379 1969.515869,746.431274 1976.092529,778.201599 
	C1978.919556,791.858521 1982.353882,805.396790 1984.899414,819.102844 
	C1987.369263,832.400208 1989.162476,845.828125 1991.053833,859.226807 
	C1993.153076,874.096741 1995.290283,888.969971 1996.909058,903.896179 
	C1998.042847,914.350525 1998.290039,924.899597 1999.082275,935.395081 
	C1999.151001,936.306458 2000.334351,937.133667 2001.000000,938.000000 
	C2001.000000,979.687561 2001.000000,1021.375183 2000.619629,1063.251831 
	C1999.493286,1069.223022 1998.633301,1074.993164 1998.024414,1080.789673 
	C1996.620972,1094.149536 1995.563110,1107.549072 1993.948120,1120.882080 
	C1992.223877,1135.116089 1990.392334,1149.356812 1987.937988,1163.478271 
	C1984.236328,1184.777100 1980.777588,1206.172363 1975.739624,1227.172607 
	C1966.341309,1266.347534 1955.946533,1305.303223 1941.001587,1342.823242 
	C1929.927612,1370.625244 1919.328247,1398.680420 1906.734863,1425.794922 
	C1894.693604,1451.721069 1880.670410,1476.753174 1866.932251,1501.857422 
	C1852.194214,1528.788452 1835.078003,1554.232178 1817.422729,1579.356934 
	C1799.099854,1605.431519 1779.478027,1630.458374 1758.727295,1654.579102 
	C1744.416992,1671.213623 1729.330078,1687.195923 1714.231323,1703.129517 
	C1705.919800,1711.900391 1696.892334,1719.995605 1688.133179,1728.338257 
	C1685.029907,1731.293823 1681.807983,1734.129395 1678.566650,1736.934692 
	C1661.421021,1751.773682 1644.539185,1766.936157 1627.001587,1781.297607 
	C1612.647461,1793.052002 1597.778320,1804.230225 1582.634888,1814.954224 
	C1565.545288,1827.056152 1548.187134,1838.836182 1530.407227,1849.890015 
	C1511.286987,1861.776978 1491.875488,1873.290161 1471.978271,1883.807129 
	C1450.861084,1894.968994 1429.211060,1905.182129 1407.445068,1915.039307 
	C1388.569458,1923.587402 1369.456299,1931.746338 1349.993286,1938.826782 
	C1327.211304,1947.114502 1304.117432,1954.675049 1280.824707,1961.392334 
	C1257.811279,1968.029419 1234.562134,1974.127686 1211.088257,1978.822388 
	C1179.971802,1985.045898 1148.608032,1990.158203 1117.209961,1994.796265 
	C1100.659424,1997.241211 1083.807739,1997.632568 1067.102661,1999.075684 
	C1066.020996,1999.169067 1065.031982,2000.333496 1064.000000,2001.000000 
M400.341553,769.844299 
	C389.130280,801.514465 381.500793,834.169556 378.432037,867.480164 
	C376.092224,892.878235 376.842224,918.614807 377.215210,944.186218 
	C377.402588,957.032471 379.327087,969.921570 381.302856,982.661499 
	C389.153595,1033.284424 405.353912,1081.175903 429.613586,1126.284546 
	C473.061279,1207.071533 535.046753,1270.551636 611.597656,1320.284424 
	C615.739197,1322.974976 617.210999,1325.700806 617.191162,1330.616821 
	C616.991821,1379.948730 617.204529,1429.282471 617.021912,1478.614502 
	C616.912781,1508.111084 640.917297,1528.455933 667.489868,1527.877075 
	C678.371460,1527.640137 687.892944,1522.932007 696.811462,1516.619629 
	C722.776428,1498.241943 748.538452,1479.523193 775.199768,1462.199707 
	C799.457581,1446.437866 824.756165,1432.273193 849.675537,1417.538940 
	C854.626709,1414.611572 859.988586,1413.101318 865.927063,1414.870361 
	C869.393250,1415.902710 873.023804,1416.607178 876.627014,1416.917847 
	C894.494446,1418.457153 912.357117,1420.581543 930.259766,1421.055298 
	C955.686584,1421.727905 981.156799,1421.565063 1006.590027,1420.969971 
	C1031.869995,1420.378662 1056.936401,1417.007812 1081.848389,1412.746826 
	C1166.686279,1398.236328 1246.053467,1369.107300 1318.755249,1322.773804 
	C1396.904053,1272.968506 1460.162842,1208.855591 1504.350952,1126.827271 
	C1539.131470,1062.262695 1556.985229,993.240784 1557.995728,919.913391 
	C1558.121338,910.802124 1557.630615,901.657654 1556.940552,892.565369 
	C1555.747070,876.842163 1555.048462,861.010620 1552.609985,845.464844 
	C1541.365112,773.778015 1513.707275,708.713318 1471.504761,649.859741 
	C1414.467529,570.318481 1340.023071,511.804260 1252.041992,470.008148 
	C1177.140259,434.425476 1098.025146,414.914124 1015.433411,408.956177 
	C968.727600,405.586975 922.162903,407.112732 875.783203,413.261688 
	C826.446655,419.802704 778.351685,431.587128 731.726257,449.098328 
	C644.120544,482.000641 567.086731,531.014771 503.300812,599.936829 
	C457.601624,649.315796 422.787109,705.398804 400.341553,769.844299 
M1406.122681,1580.378418 
	C1409.628784,1582.920166 1412.854736,1586.058594 1416.705444,1587.866577 
	C1422.772095,1590.714722 1429.170044,1594.364014 1435.583130,1594.698975 
	C1459.694336,1595.958740 1477.100708,1578.642700 1477.153198,1554.514893 
	C1477.214111,1526.517334 1477.248779,1498.519043 1477.078003,1470.522461 
	C1477.054077,1466.584229 1478.242798,1464.259155 1481.545410,1462.065552 
	C1513.878418,1440.588745 1542.163696,1414.695435 1565.513916,1383.622559 
	C1610.187378,1324.174561 1630.844727,1257.469116 1624.789185,1183.089600 
	C1621.644287,1144.462769 1610.579956,1107.980713 1592.240112,1073.796021 
	C1587.955688,1065.809937 1583.167725,1058.093628 1577.992676,1049.188599 
	C1577.044678,1051.919434 1576.529907,1053.248047 1576.119385,1054.608032 
	C1567.196167,1084.165771 1555.554565,1112.617554 1541.083374,1139.883057 
	C1539.106812,1143.607056 1538.942139,1146.829834 1540.182251,1150.735962 
	C1547.948730,1175.197754 1549.695190,1200.440918 1547.604858,1225.749756 
	C1543.931885,1270.215820 1526.516479,1309.322998 1498.624390,1343.894531 
	C1476.804565,1370.940063 1450.339966,1392.516724 1420.297119,1409.800537 
	C1406.682495,1417.633179 1399.745850,1429.243042 1399.823853,1445.013916 
	C1399.877441,1455.846069 1399.842773,1466.678833 1399.817261,1477.511230 
	C1399.813965,1478.914307 1399.627319,1480.317017 1399.473389,1482.442139 
	C1396.791260,1480.789795 1394.776367,1479.362915 1392.604370,1478.239868 
	C1376.078003,1469.693848 1359.760620,1460.688599 1342.888916,1452.883911 
	C1331.555054,1447.640991 1319.284546,1446.924683 1306.677979,1448.766357 
	C1292.742188,1450.802246 1278.646362,1452.195923 1264.575562,1452.765137 
	C1226.664551,1454.298950 1189.485962,1449.304077 1152.994385,1438.925659 
	C1150.286743,1438.155640 1147.040649,1438.145874 1144.295532,1438.813354 
	C1112.067139,1446.650635 1079.549927,1452.801392 1046.535156,1456.184937 
	C1037.795166,1457.080688 1029.053467,1457.959839 1019.464172,1458.932617 
	C1021.152039,1460.273193 1022.102417,1461.142700 1023.160461,1461.851685 
	C1055.471558,1483.501587 1090.312134,1499.818115 1127.500122,1511.125488 
	C1187.464844,1529.358032 1248.552490,1534.064819 1310.614624,1525.735229 
	C1315.952026,1525.018921 1320.363159,1525.871826 1324.891602,1528.219360 
	C1353.370972,1542.982910 1379.491089,1561.416382 1406.122681,1580.378418 
z"/>
<path fill="#000000" opacity="1.000000" stroke="none" 
	d="
M1.000015,1064.468628 
	C1.665648,1064.863159 2.849211,1065.687378 2.917749,1066.595703 
	C3.709818,1077.091553 3.957588,1087.640869 5.091050,1098.095581 
	C6.709322,1113.022217 8.844679,1127.895996 10.943851,1142.766235 
	C12.835206,1156.164307 14.750880,1169.566284 17.073536,1182.893799 
	C19.079020,1194.401245 21.280834,1205.903076 24.087433,1217.236206 
	C29.805479,1240.325806 35.346119,1263.492432 42.157616,1286.269043 
	C49.378723,1310.415527 57.513275,1334.320312 66.154671,1358.000122 
	C72.314713,1374.880493 79.580544,1391.393677 87.060844,1407.746826 
	C96.461472,1428.298340 105.730606,1448.989136 116.605377,1468.768066 
	C131.234207,1495.374878 146.638153,1521.619751 163.023621,1547.177246 
	C177.849045,1570.301514 194.108673,1592.536987 210.381866,1614.689941 
	C219.377777,1626.936279 229.419876,1638.455566 239.492691,1649.858887 
	C253.465393,1665.677124 267.689209,1681.287964 282.220154,1696.593994 
	C294.510101,1709.539429 306.823120,1722.561768 320.138916,1734.411865 
	C341.058258,1753.028442 362.295685,1771.373535 384.385956,1788.564819 
	C407.742432,1806.741699 431.697906,1824.281006 456.425781,1840.524658 
	C479.050049,1855.386230 502.770569,1868.666016 526.539368,1881.671753 
	C546.376282,1892.526001 566.672302,1902.671753 587.330139,1911.860840 
	C610.842834,1922.319946 634.870667,1931.658325 658.875916,1940.964478 
	C696.565979,1955.576172 735.451965,1966.423218 774.730225,1975.704712 
	C795.746033,1980.670654 817.096680,1984.323730 838.408447,1987.900879 
	C855.630005,1990.791382 873.002991,1992.814575 890.340820,1994.964600 
	C900.590576,1996.235718 910.908997,1996.944336 921.183960,1998.024902 
	C926.977356,1998.634277 932.745361,1999.485352 938.262390,2000.613770 
	C625.739563,2001.000000 313.479126,2001.000000 1.000000,2001.000000 
	C1.000000,1688.979126 1.000000,1376.958130 1.000015,1064.468628 
z"/>
<path fill="#000000" opacity="1.000000" stroke="none" 
	d="
M1064.468506,2001.000000 
	C1065.031982,2000.333496 1066.020996,1999.169067 1067.102661,1999.075684 
	C1083.807739,1997.632568 1100.659424,1997.241211 1117.209961,1994.796265 
	C1148.608032,1990.158203 1179.971802,1985.045898 1211.088257,1978.822388 
	C1234.562134,1974.127686 1257.811279,1968.029419 1280.824707,1961.392334 
	C1304.117432,1954.675049 1327.211304,1947.114502 1349.993286,1938.826782 
	C1369.456299,1931.746338 1388.569458,1923.587402 1407.445068,1915.039307 
	C1429.211060,1905.182129 1450.861084,1894.968994 1471.978271,1883.807129 
	C1491.875488,1873.290161 1511.286987,1861.776978 1530.407227,1849.890015 
	C1548.187134,1838.836182 1565.545288,1827.056152 1582.634888,1814.954224 
	C1597.778320,1804.230225 1612.647461,1793.052002 1627.001587,1781.297607 
	C1644.539185,1766.936157 1661.421021,1751.773682 1678.566650,1736.934692 
	C1681.807983,1734.129395 1685.029907,1731.293823 1688.133179,1728.338257 
	C1696.892334,1719.995605 1705.919800,1711.900391 1714.231323,1703.129517 
	C1729.330078,1687.195923 1744.416992,1671.213623 1758.727295,1654.579102 
	C1779.478027,1630.458374 1799.099854,1605.431519 1817.422729,1579.356934 
	C1835.078003,1554.232178 1852.194214,1528.788452 1866.932251,1501.857422 
	C1880.670410,1476.753174 1894.693604,1451.721069 1906.734863,1425.794922 
	C1919.328247,1398.680420 1929.927612,1370.625244 1941.001587,1342.823242 
	C1955.946533,1305.303223 1966.341309,1266.347534 1975.739624,1227.172607 
	C1980.777588,1206.172363 1984.236328,1184.777100 1987.937988,1163.478271 
	C1990.392334,1149.356812 1992.223877,1135.116089 1993.948120,1120.882080 
	C1995.563110,1107.549072 1996.620972,1094.149536 1998.024414,1080.789673 
	C1998.633301,1074.993164 1999.493286,1069.223022 2000.619629,1063.720459 
	C2001.000000,1376.260376 2001.000000,1688.520874 2001.000000,2001.000000 
	C1688.979126,2001.000000 1376.958130,2001.000000 1064.468506,2001.000000 
z"/>
<path fill="#000000" opacity="1.000000" stroke="none" 
	d="
M937.531372,1.000004 
	C936.972717,1.666337 935.988586,2.831290 934.911743,2.924356 
	C918.206482,4.368040 901.368713,4.828533 884.800781,7.192709 
	C854.175659,11.562783 823.525513,16.138659 793.229248,22.314001 
	C767.873962,27.482231 742.964111,34.888271 717.937012,41.601517 
	C683.920593,50.726063 650.797546,62.662441 618.489075,76.487862 
	C588.771301,89.204613 559.450256,103.038628 530.797791,117.995972 
	C506.509583,130.675064 482.973175,144.959946 459.935333,159.822723 
	C436.210266,175.128891 413.128052,191.505188 390.453949,208.341690 
	C374.324463,220.318512 359.104797,233.565765 343.911133,246.744125 
	C330.818542,258.100098 318.314392,270.136047 305.594055,281.918854 
	C299.531830,287.534241 293.258911,292.967560 287.627228,298.993408 
	C273.889648,313.692566 260.248322,328.494598 246.987625,343.622803 
	C234.573776,357.784912 222.227707,372.055176 210.716354,386.946198 
	C198.598236,402.622131 186.909241,418.702454 176.101257,435.301788 
	C159.272583,461.147919 142.735596,487.226532 127.237823,513.882690 
	C115.561028,533.966858 104.799690,554.702209 95.266052,575.883728 
	C82.977478,603.186096 71.997467,631.096069 61.048653,658.977905 
	C49.014725,689.623047 39.510826,721.112366 31.970837,753.164185 
	C26.482237,776.495667 20.853764,799.810486 16.155397,823.306274 
	C12.708939,840.541382 10.444344,858.027405 8.086125,875.460144 
	C6.635602,886.182983 5.932338,897.010376 5.019828,907.801453 
	C4.244916,916.965271 3.672982,926.146179 2.933785,935.313293 
	C2.876612,936.022339 2.206644,936.682068 1.410752,937.182373 
	C1.000000,625.072876 1.000000,313.145721 1.000000,1.000000 
	C313.020874,1.000000 625.041748,1.000000 937.531372,1.000004 
z"/>
<path fill="#000000" opacity="1.000000" stroke="none" 
	d="
M2001.000000,937.531372 
	C2000.334351,937.133667 1999.151001,936.306458 1999.082275,935.395081 
	C1998.290039,924.899597 1998.042847,914.350525 1996.909058,903.896179 
	C1995.290283,888.969971 1993.153076,874.096741 1991.053833,859.226807 
	C1989.162476,845.828125 1987.369263,832.400208 1984.899414,819.102844 
	C1982.353882,805.396790 1978.919556,791.858521 1976.092529,778.201599 
	C1969.515869,746.431274 1960.820312,715.213379 1950.090454,684.646729 
	C1940.389526,657.011597 1930.152954,629.500610 1918.623291,602.590088 
	C1907.813599,577.359985 1895.788696,552.566711 1882.842163,528.360046 
	C1870.387817,505.073364 1856.775879,482.324066 1842.379395,460.179352 
	C1826.194214,435.283020 1808.897339,411.083221 1791.417969,387.065155 
	C1782.475464,374.777496 1772.347046,363.311310 1762.273193,351.898743 
	C1748.522827,336.321167 1734.342529,321.122131 1720.286743,305.815704 
	C1714.584351,299.605927 1709.024414,293.220032 1702.876831,287.473602 
	C1688.285889,273.834839 1673.788574,260.047455 1658.509033,247.205673 
	C1636.494263,228.703049 1614.377197,210.231247 1591.264526,193.152649 
	C1569.624512,177.162292 1546.889160,162.598312 1524.171997,148.135330 
	C1492.438477,127.932068 1458.983276,110.769859 1425.024780,94.663193 
	C1408.969849,87.048302 1392.544678,80.144920 1376.001709,73.645943 
	C1355.696777,65.669098 1335.285278,57.868587 1314.568115,51.062374 
	C1291.361450,43.438278 1267.925415,36.377666 1244.283691,30.251425 
	C1222.784058,24.680267 1200.942505,20.338699 1179.121338,16.131580 
	C1165.202881,13.448128 1151.069580,11.817248 1136.991333,10.041571 
	C1122.051270,8.157165 1107.071289,6.570941 1092.090942,5.027925 
	C1083.752808,4.169092 1075.375122,3.701392 1067.024292,2.957009 
	C1065.811646,2.848922 1064.649292,2.178681 1063.731812,1.384286 
	C1376.260376,1.000000 1688.520874,1.000000 2001.000000,1.000000 
	C2001.000000,313.020874 2001.000000,625.041748 2001.000000,937.531372 
z"/>
<path fill="#FEFFFF" opacity="1.000000" stroke="none" 
	d="
M400.503479,769.487427 
	C422.787109,705.398804 457.601624,649.315796 503.300812,599.936829 
	C567.086731,531.014771 644.120544,482.000641 731.726257,449.098328 
	C778.351685,431.587128 826.446655,419.802704 875.783203,413.261688 
	C922.162903,407.112732 968.727600,405.586975 1015.433411,408.956177 
	C1098.025146,414.914124 1177.140259,434.425476 1252.041992,470.008148 
	C1340.023071,511.804260 1414.467529,570.318481 1471.504761,649.859741 
	C1513.707275,708.713318 1541.365112,773.778015 1552.609985,845.464844 
	C1555.048462,861.010620 1555.747070,876.842163 1556.940552,892.565369 
	C1557.630615,901.657654 1558.121338,910.802124 1557.995728,919.913391 
	C1556.985229,993.240784 1539.131470,1062.262695 1504.350952,1126.827271 
	C1460.162842,1208.855591 1396.904053,1272.968506 1318.755249,1322.773804 
	C1246.053467,1369.107300 1166.686279,1398.236328 1081.848389,1412.746826 
	C1056.936401,1417.007812 1031.869995,1420.378662 1006.590027,1420.969971 
	C981.156799,1421.565063 955.686584,1421.727905 930.259766,1421.055298 
	C912.357117,1420.581543 894.494446,1418.457153 876.627014,1416.917847 
	C873.023804,1416.607178 869.393250,1415.902710 865.927063,1414.870361 
	C859.988586,1413.101318 854.626709,1414.611572 849.675537,1417.538940 
	C824.756165,1432.273193 799.457581,1446.437866 775.199768,1462.199707 
	C748.538452,1479.523193 722.776428,1498.241943 696.811462,1516.619629 
	C687.892944,1522.932007 678.371460,1527.640137 667.489868,1527.877075 
	C640.917297,1528.455933 616.912781,1508.111084 617.021912,1478.614502 
	C617.204529,1429.282471 616.991821,1379.948730 617.191162,1330.616821 
	C617.210999,1325.700806 615.739197,1322.974976 611.597656,1320.284424 
	C535.046753,1270.551636 473.061279,1207.071533 429.613586,1126.284546 
	C405.353912,1081.175903 389.153595,1033.284424 381.302856,982.661499 
	C379.327087,969.921570 377.402588,957.032471 377.215210,944.186218 
	C376.842224,918.614807 376.092224,892.878235 378.432037,867.480164 
	C381.500793,834.169556 389.130280,801.514465 400.503479,769.487427 
M473.118073,930.437134 
	C474.865601,945.735779 475.749115,961.192017 478.506836,976.306335 
	C492.117767,1050.904297 527.166382,1114.519043 578.895325,1169.358154 
	C611.151917,1203.553955 648.197815,1231.621216 688.871277,1255.049316 
	C705.761780,1264.778320 714.114624,1279.526001 714.053223,1299.097900 
	C713.968079,1326.260620 714.028320,1353.423828 714.043091,1380.586914 
	C714.044067,1382.327637 714.190247,1384.068359 714.297913,1386.452515 
	C716.418213,1385.122803 717.947144,1384.202148 719.437927,1383.223145 
	C748.396667,1364.208374 777.585510,1345.586548 809.344543,1331.442993 
	C825.511719,1324.243164 842.111267,1318.071045 860.037170,1318.116455 
	C869.715332,1318.140869 879.373718,1320.341553 889.066956,1321.297119 
	C905.881836,1322.954712 922.687866,1325.008179 939.549438,1325.822510 
	C975.795837,1327.572876 1011.942871,1326.157959 1047.941772,1321.079590 
	C1095.472412,1314.374390 1141.572144,1302.444336 1185.906250,1283.994873 
	C1263.142944,1251.853027 1329.635620,1205.050537 1381.450439,1138.777344 
	C1429.518433,1077.296509 1457.428711,1007.858276 1460.718140,929.449951 
	C1461.500854,910.792297 1460.545166,891.911072 1458.591675,873.321533 
	C1454.879517,838.001221 1445.057861,804.142212 1430.445435,771.753723 
	C1397.698486,699.170288 1346.657837,641.995605 1281.439331,597.294800 
	C1189.039551,533.963745 1085.799927,505.158966 974.498535,503.104431 
	C964.723999,502.923981 954.909241,503.362061 945.152954,504.065369 
	C923.417358,505.632202 901.583618,506.630371 880.013184,509.524597 
	C841.482727,514.694519 803.969421,524.458313 767.507874,538.043762 
	C688.849854,567.351501 620.092102,611.471863 565.213806,675.549316 
	C502.738586,748.497131 469.976807,832.543457 473.118073,930.437134 
z"/>
<path fill="#FEFFFF" opacity="1.000000" stroke="none" 
	d="
M1405.829956,1580.173096 
	C1379.491089,1561.416382 1353.370972,1542.982910 1324.891602,1528.219360 
	C1320.363159,1525.871826 1315.952026,1525.018921 1310.614624,1525.735229 
	C1248.552490,1534.064819 1187.464844,1529.358032 1127.500122,1511.125488 
	C1090.312134,1499.818115 1055.471558,1483.501587 1023.160461,1461.851685 
	C1022.102417,1461.142700 1021.152039,1460.273193 1019.464172,1458.932617 
	C1029.053467,1457.959839 1037.795166,1457.080688 1046.535156,1456.184937 
	C1079.549927,1452.801392 1112.067139,1446.650635 1144.295532,1438.813354 
	C1147.040649,1438.145874 1150.286743,1438.155640 1152.994385,1438.925659 
	C1189.485962,1449.304077 1226.664551,1454.298950 1264.575562,1452.765137 
	C1278.646362,1452.195923 1292.742188,1450.802246 1306.677979,1448.766357 
	C1319.284546,1446.924683 1331.555054,1447.640991 1342.888916,1452.883911 
	C1359.760620,1460.688599 1376.078003,1469.693848 1392.604370,1478.239868 
	C1394.776367,1479.362915 1396.791260,1480.789795 1399.473389,1482.442139 
	C1399.627319,1480.317017 1399.813965,1478.914307 1399.817261,1477.511230 
	C1399.842773,1466.678833 1399.877441,1455.846069 1399.823853,1445.013916 
	C1399.745850,1429.243042 1406.682495,1417.633179 1420.297119,1409.800537 
	C1450.339966,1392.516724 1476.804565,1370.940063 1498.624390,1343.894531 
	C1526.516479,1309.322998 1543.931885,1270.215820 1547.604858,1225.749756 
	C1549.695190,1200.440918 1547.948730,1175.197754 1540.182251,1150.735962 
	C1538.942139,1146.829834 1539.106812,1143.607056 1541.083374,1139.883057 
	C1555.554565,1112.617554 1567.196167,1084.165771 1576.119385,1054.608032 
	C1576.529907,1053.248047 1577.044678,1051.919434 1577.992676,1049.188599 
	C1583.167725,1058.093628 1587.955688,1065.809937 1592.240112,1073.796021 
	C1610.579956,1107.980713 1621.644287,1144.462769 1624.789185,1183.089600 
	C1630.844727,1257.469116 1610.187378,1324.174561 1565.513916,1383.622559 
	C1542.163696,1414.695435 1513.878418,1440.588745 1481.545410,1462.065552 
	C1478.242798,1464.259155 1477.054077,1466.584229 1477.078003,1470.522461 
	C1477.248779,1498.519043 1477.214111,1526.517334 1477.153198,1554.514893 
	C1477.100708,1578.642700 1459.694336,1595.958740 1435.583130,1594.698975 
	C1429.170044,1594.364014 1422.772095,1590.714722 1416.705444,1587.866577 
	C1412.854736,1586.058594 1409.628784,1582.920166 1405.829956,1580.173096 
z"/>
<path fill="#1C98F7" opacity="1.000000" stroke="none" 
	d="
M473.123657,929.944824 
	C469.976807,832.543457 502.738586,748.497131 565.213806,675.549316 
	C620.092102,611.471863 688.849854,567.351501 767.507874,538.043762 
	C803.969421,524.458313 841.482727,514.694519 880.013184,509.524597 
	C901.583618,506.630371 923.417358,505.632202 945.152954,504.065369 
	C954.909241,503.362061 964.723999,502.923981 974.498535,503.104431 
	C1085.799927,505.158966 1189.039551,533.963745 1281.439331,597.294800 
	C1346.657837,641.995605 1397.698486,699.170288 1430.445435,771.753723 
	C1445.057861,804.142212 1454.879517,838.001221 1458.591675,873.321533 
	C1460.545166,891.911072 1461.500854,910.792297 1460.718140,929.449951 
	C1457.428711,1007.858276 1429.518433,1077.296509 1381.450439,1138.777344 
	C1329.635620,1205.050537 1263.142944,1251.853027 1185.906250,1283.994873 
	C1141.572144,1302.444336 1095.472412,1314.374390 1047.941772,1321.079590 
	C1011.942871,1326.157959 975.795837,1327.572876 939.549438,1325.822510 
	C922.687866,1325.008179 905.881836,1322.954712 889.066956,1321.297119 
	C879.373718,1320.341553 869.715332,1318.140869 860.037170,1318.116455 
	C842.111267,1318.071045 825.511719,1324.243164 809.344543,1331.442993 
	C777.585510,1345.586548 748.396667,1364.208374 719.437927,1383.223145 
	C717.947144,1384.202148 716.418213,1385.122803 714.297913,1386.452515 
	C714.190247,1384.068359 714.044067,1382.327637 714.043091,1380.586914 
	C714.028320,1353.423828 713.968079,1326.260620 714.053223,1299.097900 
	C714.114624,1279.526001 705.761780,1264.778320 688.871277,1255.049316 
	C648.197815,1231.621216 611.151917,1203.553955 578.895325,1169.358154 
	C527.166382,1114.519043 492.117767,1050.904297 478.506836,976.306335 
	C475.749115,961.192017 474.865601,945.735779 473.123657,929.944824 
M1274.765259,880.732849 
	C1256.070923,861.723816 1232.983154,854.847656 1207.195557,858.310974 
	C1166.101074,863.830017 1136.722168,902.951355 1141.960571,943.284180 
	C1147.380615,985.015686 1186.893066,1015.580200 1227.876343,1009.988892 
	C1258.539429,1005.805664 1280.757202,989.533203 1291.414307,960.492554 
	C1302.089355,931.403259 1296.405884,904.452881 1274.765259,880.732849 
M1020.264099,878.234558 
	C1001.962830,861.131348 979.916870,855.106445 955.664917,858.243958 
	C914.699585,863.543640 884.439941,902.533691 890.098877,943.860840 
	C895.797607,985.479065 935.267395,1015.623230 976.022461,1009.970215 
	C1007.500305,1005.603943 1029.994507,988.699219 1040.121460,958.520386 
	C1050.181519,928.540527 1043.428589,901.394287 1020.264099,878.234558 
M703.017578,858.183411 
	C702.205139,858.366882 701.396912,858.571838 700.579651,858.730774 
	C659.698120,866.681213 632.137268,905.325134 638.280396,944.895142 
	C644.886230,987.445862 685.781494,1015.806702 725.592712,1009.968567 
	C770.134583,1003.436584 793.675476,964.040222 792.349365,933.580872 
	C791.181091,906.745483 780.400330,886.352844 759.121887,870.895569 
	C742.557129,858.862427 723.647278,856.648743 703.017578,858.183411 
z"/>
<path fill="#FEFFFF" opacity="1.000000" stroke="none" 
	d="
M1275.006104,880.994751 
	C1296.405884,904.452881 1302.089355,931.403259 1291.414307,960.492554 
	C1280.757202,989.533203 1258.539429,1005.805664 1227.876343,1009.988892 
	C1186.893066,1015.580200 1147.380615,985.015686 1141.960571,943.284180 
	C1136.722168,902.951355 1166.101074,863.830017 1207.195557,858.310974 
	C1232.983154,854.847656 1256.070923,861.723816 1275.006104,880.994751 
z"/>
<path fill="#FEFFFF" opacity="1.000000" stroke="none" 
	d="
M1020.519714,878.477783 
	C1043.428589,901.394287 1050.181519,928.540527 1040.121460,958.520386 
	C1029.994507,988.699219 1007.500305,1005.603943 976.022461,1009.970215 
	C935.267395,1015.623230 895.797607,985.479065 890.098877,943.860840 
	C884.439941,902.533691 914.699585,863.543640 955.664917,858.243958 
	C979.916870,855.106445 1001.962830,861.131348 1020.519714,878.477783 
z"/>
<path fill="#FEFFFF" opacity="1.000000" stroke="none" 
	d="
M703.470642,858.125854 
	C723.647278,856.648743 742.557129,858.862427 759.121887,870.895569 
	C780.400330,886.352844 791.181091,906.745483 792.349365,933.580872 
	C793.675476,964.040222 770.134583,1003.436584 725.592712,1009.968567 
	C685.781494,1015.806702 644.886230,987.445862 638.280396,944.895142 
	C632.137268,905.325134 659.698120,866.681213 700.579651,858.730774 
	C701.396912,858.571838 702.205139,858.366882 703.470642,858.125854 
z"/>
</svg>